<svg width="47" height="47" viewBox="0 0 47 47" fill="none" xmlns="http://www.w3.org/2000/svg">
<path fill-rule="evenodd" clip-rule="evenodd" d="M0 0H47V47H0V0ZM25.0604 5.5896C31.9078 5.5896 37.4509 11.1327 37.4509 17.9801C37.4509 19.9831 36.9851 21.8463 36.1467 23.4766C36.9851 25.1535 37.4509 27.0168 37.4509 29.0197C37.4509 35.8671 31.9078 41.4102 25.0604 41.4102H9.31609V5.5896H25.0604ZM25.107 26.9236C27.9484 26.9236 30.4638 25.5728 32.0941 23.5232C30.4638 21.4271 27.9019 20.1228 25.107 20.1228V16.6758C28.5074 16.6758 31.5352 18.0267 33.771 20.216C33.9574 19.5173 34.0505 18.772 34.0505 18.0267C34.0505 13.0891 30.0446 9.08316 25.107 9.08316H13.4152V37.9632H25.107C30.0446 37.9632 34.0505 33.9573 34.0505 29.0197C34.0505 28.2744 33.9574 27.5291 33.771 26.8304C31.5352 29.0197 28.4608 30.3706 25.107 30.3706V26.9236Z" fill="white"/>
</svg>
